{
	"patcher" : 	{
		"fileversion" : 1,
		"appversion" : 		{
			"major" : 5,
			"minor" : 1,
			"revision" : 9
		}
,
		"rect" : [ 270.0, 239.0, 371.0, 345.0 ],
		"bglocked" : 0,
		"defrect" : [ 270.0, 239.0, 371.0, 345.0 ],
		"openrect" : [ 0.0, 0.0, 0.0, 0.0 ],
		"openinpresentation" : 0,
		"default_fontsize" : 12.0,
		"default_fontface" : 0,
		"default_fontname" : "Arial",
		"gridonopen" : 0,
		"gridsize" : [ 15.0, 15.0 ],
		"gridsnaponopen" : 0,
		"toolbarvisible" : 1,
		"boxanimatetime" : 200,
		"imprint" : 0,
		"enablehscroll" : 1,
		"enablevscroll" : 1,
		"devicewidth" : 0.0,
		"boxes" : [ 			{
				"box" : 				{
					"maxclass" : "message",
					"text" : "target 0, set $1",
					"id" : "obj-6",
					"fontname" : "Arial",
					"numinlets" : 2,
					"fontsize" : 12.0,
					"numoutlets" : 1,
					"patching_rect" : [ 225.0, 90.0, 91.0, 18.0 ],
					"outlettype" : [ "" ]
				}

			}
, 			{
				"box" : 				{
					"maxclass" : "inlet",
					"id" : "obj-3",
					"numinlets" : 0,
					"presentation_rect" : [ 226.0, 45.0, 0.0, 0.0 ],
					"numoutlets" : 1,
					"patching_rect" : [ 225.0, 45.0, 30.0, 30.0 ],
					"outlettype" : [ "" ],
					"comment" : "name of the sflist to use (default 'soundfiles')"
				}

			}
, 			{
				"box" : 				{
					"maxclass" : "number",
					"id" : "obj-2",
					"fontname" : "Arial",
					"numinlets" : 1,
					"fontsize" : 12.0,
					"numoutlets" : 2,
					"patching_rect" : [ 75.0, 150.0, 34.0, 20.0 ],
					"outlettype" : [ "int", "bang" ]
				}

			}
, 			{
				"box" : 				{
					"maxclass" : "inlet",
					"id" : "obj-23",
					"numinlets" : 0,
					"numoutlets" : 1,
					"patching_rect" : [ 150.0, 45.0, 30.0, 30.0 ],
					"outlettype" : [ "" ],
					"comment" : "number of voices (int max 10)"
				}

			}
, 			{
				"box" : 				{
					"maxclass" : "inlet",
					"id" : "obj-22",
					"numinlets" : 0,
					"numoutlets" : 1,
					"patching_rect" : [ 60.0, 45.0, 30.0, 30.0 ],
					"outlettype" : [ "" ],
					"comment" : "sample index to play"
				}

			}
, 			{
				"box" : 				{
					"maxclass" : "outlet",
					"id" : "obj-21",
					"numinlets" : 1,
					"numoutlets" : 0,
					"patching_rect" : [ 210.0, 270.0, 30.0, 30.0 ],
					"comment" : "sound R"
				}

			}
, 			{
				"box" : 				{
					"maxclass" : "outlet",
					"id" : "obj-20",
					"numinlets" : 1,
					"numoutlets" : 0,
					"patching_rect" : [ 60.0, 270.0, 30.0, 30.0 ],
					"comment" : "sound L"
				}

			}
, 			{
				"box" : 				{
					"maxclass" : "newobj",
					"text" : "t i b",
					"id" : "obj-14",
					"fontname" : "Arial",
					"numinlets" : 1,
					"fontsize" : 12.0,
					"numoutlets" : 2,
					"patching_rect" : [ 60.0, 90.0, 33.5, 20.0 ],
					"outlettype" : [ "int", "bang" ]
				}

			}
, 			{
				"box" : 				{
					"maxclass" : "newobj",
					"text" : "counter 0 1 4",
					"id" : "obj-8",
					"fontname" : "Arial",
					"numinlets" : 5,
					"fontsize" : 12.0,
					"numoutlets" : 4,
					"patching_rect" : [ 75.0, 120.0, 94.0, 20.0 ],
					"outlettype" : [ "int", "", "", "int" ]
				}

			}
, 			{
				"box" : 				{
					"maxclass" : "newobj",
					"text" : "prepend target",
					"id" : "obj-5",
					"fontname" : "Arial",
					"numinlets" : 1,
					"fontsize" : 12.0,
					"numoutlets" : 1,
					"patching_rect" : [ 75.0, 180.0, 89.0, 20.0 ],
					"outlettype" : [ "" ]
				}

			}
, 			{
				"box" : 				{
					"maxclass" : "newobj",
					"text" : "poly~ poly_sampleplayer 16",
					"id" : "obj-1",
					"fontname" : "Arial",
					"numinlets" : 1,
					"fontsize" : 12.0,
					"numoutlets" : 2,
					"patching_rect" : [ 60.0, 225.0, 169.0, 20.0 ],
					"outlettype" : [ "signal", "signal" ]
				}

			}
 ],
		"lines" : [ 			{
				"patchline" : 				{
					"source" : [ "obj-6", 0 ],
					"destination" : [ "obj-1", 0 ],
					"hidden" : 0,
					"midpoints" : [ 234.5, 215.0, 69.5, 215.0 ]
				}

			}
, 			{
				"patchline" : 				{
					"source" : [ "obj-3", 0 ],
					"destination" : [ "obj-6", 0 ],
					"hidden" : 0,
					"midpoints" : [  ]
				}

			}
, 			{
				"patchline" : 				{
					"source" : [ "obj-23", 0 ],
					"destination" : [ "obj-8", 4 ],
					"hidden" : 0,
					"midpoints" : [  ]
				}

			}
, 			{
				"patchline" : 				{
					"source" : [ "obj-22", 0 ],
					"destination" : [ "obj-14", 0 ],
					"hidden" : 0,
					"midpoints" : [  ]
				}

			}
, 			{
				"patchline" : 				{
					"source" : [ "obj-14", 1 ],
					"destination" : [ "obj-8", 0 ],
					"hidden" : 0,
					"midpoints" : [  ]
				}

			}
, 			{
				"patchline" : 				{
					"source" : [ "obj-8", 0 ],
					"destination" : [ "obj-2", 0 ],
					"hidden" : 0,
					"midpoints" : [  ]
				}

			}
, 			{
				"patchline" : 				{
					"source" : [ "obj-2", 0 ],
					"destination" : [ "obj-5", 0 ],
					"hidden" : 0,
					"midpoints" : [  ]
				}

			}
, 			{
				"patchline" : 				{
					"source" : [ "obj-14", 0 ],
					"destination" : [ "obj-1", 0 ],
					"hidden" : 0,
					"midpoints" : [  ]
				}

			}
, 			{
				"patchline" : 				{
					"source" : [ "obj-5", 0 ],
					"destination" : [ "obj-1", 0 ],
					"hidden" : 0,
					"midpoints" : [ 84.5, 215.5, 69.5, 215.5 ]
				}

			}
, 			{
				"patchline" : 				{
					"source" : [ "obj-1", 0 ],
					"destination" : [ "obj-20", 0 ],
					"hidden" : 0,
					"midpoints" : [  ]
				}

			}
, 			{
				"patchline" : 				{
					"source" : [ "obj-1", 1 ],
					"destination" : [ "obj-21", 0 ],
					"hidden" : 0,
					"midpoints" : [  ]
				}

			}
 ]
	}

}
