{
	"patcher" : 	{
		"fileversion" : 1,
		"appversion" : 		{
			"major" : 5,
			"minor" : 1,
			"revision" : 9
		}
,
		"rect" : [ 102.0, 202.0, 454.0, 357.0 ],
		"bglocked" : 0,
		"defrect" : [ 102.0, 202.0, 454.0, 357.0 ],
		"openrect" : [ 0.0, 0.0, 0.0, 0.0 ],
		"openinpresentation" : 0,
		"default_fontsize" : 12.0,
		"default_fontface" : 0,
		"default_fontname" : "Arial",
		"gridonopen" : 0,
		"gridsize" : [ 15.0, 15.0 ],
		"gridsnaponopen" : 0,
		"toolbarvisible" : 1,
		"boxanimatetime" : 200,
		"imprint" : 0,
		"enablehscroll" : 1,
		"enablevscroll" : 1,
		"devicewidth" : 0.0,
		"boxes" : [ 			{
				"box" : 				{
					"maxclass" : "message",
					"text" : "set $1",
					"numoutlets" : 1,
					"fontsize" : 12.0,
					"patching_rect" : [ 345.0, 255.0, 43.0, 18.0 ],
					"outlettype" : [ "" ],
					"id" : "obj-13",
					"fontname" : "Arial",
					"numinlets" : 2,
					"presentation_rect" : [ 359.0, 258.0, 0.0, 0.0 ]
				}

			}
, 			{
				"box" : 				{
					"maxclass" : "outlet",
					"numoutlets" : 0,
					"patching_rect" : [ 345.0, 285.0, 25.0, 25.0 ],
					"id" : "obj-12",
					"numinlets" : 1,
					"presentation_rect" : [ 359.0, 283.0, 0.0, 0.0 ],
					"comment" : "set message intended for maximum of range input"
				}

			}
, 			{
				"box" : 				{
					"maxclass" : "outlet",
					"numoutlets" : 0,
					"patching_rect" : [ 90.0, 285.0, 25.0, 25.0 ],
					"id" : "obj-11",
					"numinlets" : 1,
					"presentation_rect" : [ 109.0, 286.0, 0.0, 0.0 ],
					"comment" : "set message intended for minimum of range input"
				}

			}
, 			{
				"box" : 				{
					"maxclass" : "message",
					"text" : "set $1",
					"numoutlets" : 1,
					"fontsize" : 12.0,
					"patching_rect" : [ 90.0, 255.0, 43.0, 18.0 ],
					"outlettype" : [ "" ],
					"id" : "obj-10",
					"fontname" : "Arial",
					"numinlets" : 2
				}

			}
, 			{
				"box" : 				{
					"maxclass" : "newobj",
					"text" : "t f f f",
					"numoutlets" : 3,
					"fontsize" : 12.0,
					"patching_rect" : [ 75.0, 75.0, 46.0, 20.0 ],
					"outlettype" : [ "float", "float", "float" ],
					"id" : "obj-24",
					"fontname" : "Arial",
					"numinlets" : 1
				}

			}
, 			{
				"box" : 				{
					"maxclass" : "newobj",
					"text" : "t f f f",
					"numoutlets" : 3,
					"fontsize" : 12.0,
					"patching_rect" : [ 330.0, 75.0, 46.0, 20.0 ],
					"outlettype" : [ "float", "float", "float" ],
					"id" : "obj-22",
					"fontname" : "Arial",
					"numinlets" : 1
				}

			}
, 			{
				"box" : 				{
					"maxclass" : "flonum",
					"numoutlets" : 2,
					"fontsize" : 12.0,
					"patching_rect" : [ 45.0, 210.0, 50.0, 20.0 ],
					"outlettype" : [ "float", "bang" ],
					"id" : "obj-9",
					"fontname" : "Arial",
					"numinlets" : 1
				}

			}
, 			{
				"box" : 				{
					"maxclass" : "flonum",
					"numoutlets" : 2,
					"fontsize" : 12.0,
					"patching_rect" : [ 300.0, 210.0, 50.0, 20.0 ],
					"outlettype" : [ "float", "bang" ],
					"id" : "obj-8",
					"fontname" : "Arial",
					"numinlets" : 1
				}

			}
, 			{
				"box" : 				{
					"maxclass" : "newobj",
					"text" : "maximum 1.",
					"numoutlets" : 2,
					"fontsize" : 12.0,
					"patching_rect" : [ 300.0, 180.0, 76.0, 20.0 ],
					"outlettype" : [ "float", "int" ],
					"id" : "obj-7",
					"fontname" : "Arial",
					"numinlets" : 2
				}

			}
, 			{
				"box" : 				{
					"maxclass" : "outlet",
					"numoutlets" : 0,
					"patching_rect" : [ 300.0, 285.0, 25.0, 25.0 ],
					"id" : "obj-6",
					"numinlets" : 1,
					"comment" : "maximum of range value output"
				}

			}
, 			{
				"box" : 				{
					"maxclass" : "outlet",
					"numoutlets" : 0,
					"patching_rect" : [ 45.0, 285.0, 25.0, 25.0 ],
					"id" : "obj-5",
					"numinlets" : 1,
					"comment" : "minimum of range value output"
				}

			}
, 			{
				"box" : 				{
					"maxclass" : "newobj",
					"text" : "minimum 0.",
					"numoutlets" : 2,
					"fontsize" : 12.0,
					"patching_rect" : [ 45.0, 180.0, 76.0, 20.0 ],
					"outlettype" : [ "float", "int" ],
					"id" : "obj-3",
					"fontname" : "Arial",
					"numinlets" : 2
				}

			}
, 			{
				"box" : 				{
					"maxclass" : "inlet",
					"numoutlets" : 1,
					"patching_rect" : [ 330.0, 30.0, 25.0, 25.0 ],
					"outlettype" : [ "" ],
					"id" : "obj-2",
					"numinlets" : 0,
					"comment" : "maximum of range"
				}

			}
, 			{
				"box" : 				{
					"maxclass" : "inlet",
					"numoutlets" : 1,
					"patching_rect" : [ 75.0, 30.0, 25.0, 25.0 ],
					"outlettype" : [ "" ],
					"id" : "obj-1",
					"numinlets" : 0,
					"comment" : "minimum of range"
				}

			}
 ],
		"lines" : [ 			{
				"patchline" : 				{
					"source" : [ "obj-8", 0 ],
					"destination" : [ "obj-13", 0 ],
					"hidden" : 0,
					"midpoints" : [ 309.5, 247.0, 354.5, 247.0 ]
				}

			}
, 			{
				"patchline" : 				{
					"source" : [ "obj-13", 0 ],
					"destination" : [ "obj-12", 0 ],
					"hidden" : 0,
					"midpoints" : [  ]
				}

			}
, 			{
				"patchline" : 				{
					"source" : [ "obj-9", 0 ],
					"destination" : [ "obj-10", 0 ],
					"hidden" : 0,
					"midpoints" : [ 54.5, 247.0, 99.5, 247.0 ]
				}

			}
, 			{
				"patchline" : 				{
					"source" : [ "obj-10", 0 ],
					"destination" : [ "obj-11", 0 ],
					"hidden" : 0,
					"midpoints" : [  ]
				}

			}
, 			{
				"patchline" : 				{
					"source" : [ "obj-7", 0 ],
					"destination" : [ "obj-8", 0 ],
					"hidden" : 0,
					"midpoints" : [  ]
				}

			}
, 			{
				"patchline" : 				{
					"source" : [ "obj-8", 0 ],
					"destination" : [ "obj-7", 1 ],
					"hidden" : 0,
					"midpoints" : [ 309.5, 239.0, 382.0, 239.0, 382.0, 173.0, 366.5, 173.0 ]
				}

			}
, 			{
				"patchline" : 				{
					"source" : [ "obj-3", 0 ],
					"destination" : [ "obj-9", 0 ],
					"hidden" : 0,
					"midpoints" : [  ]
				}

			}
, 			{
				"patchline" : 				{
					"source" : [ "obj-9", 0 ],
					"destination" : [ "obj-3", 1 ],
					"hidden" : 0,
					"midpoints" : [ 54.5, 238.0, 128.0, 238.0, 128.0, 173.0, 111.5, 173.0 ]
				}

			}
, 			{
				"patchline" : 				{
					"source" : [ "obj-9", 0 ],
					"destination" : [ "obj-5", 0 ],
					"hidden" : 0,
					"midpoints" : [  ]
				}

			}
, 			{
				"patchline" : 				{
					"source" : [ "obj-8", 0 ],
					"destination" : [ "obj-6", 0 ],
					"hidden" : 0,
					"midpoints" : [  ]
				}

			}
, 			{
				"patchline" : 				{
					"source" : [ "obj-1", 0 ],
					"destination" : [ "obj-24", 0 ],
					"hidden" : 0,
					"midpoints" : [  ]
				}

			}
, 			{
				"patchline" : 				{
					"source" : [ "obj-24", 1 ],
					"destination" : [ "obj-3", 0 ],
					"hidden" : 0,
					"midpoints" : [  ]
				}

			}
, 			{
				"patchline" : 				{
					"source" : [ "obj-24", 2 ],
					"destination" : [ "obj-3", 1 ],
					"hidden" : 0,
					"midpoints" : [  ]
				}

			}
, 			{
				"patchline" : 				{
					"source" : [ "obj-24", 0 ],
					"destination" : [ "obj-7", 0 ],
					"hidden" : 0,
					"midpoints" : [ 84.5, 119.0, 309.5, 119.0 ]
				}

			}
, 			{
				"patchline" : 				{
					"source" : [ "obj-2", 0 ],
					"destination" : [ "obj-22", 0 ],
					"hidden" : 0,
					"midpoints" : [  ]
				}

			}
, 			{
				"patchline" : 				{
					"source" : [ "obj-22", 0 ],
					"destination" : [ "obj-3", 0 ],
					"hidden" : 0,
					"midpoints" : [ 339.5, 137.0, 54.5, 137.0 ]
				}

			}
, 			{
				"patchline" : 				{
					"source" : [ "obj-22", 1 ],
					"destination" : [ "obj-7", 0 ],
					"hidden" : 0,
					"midpoints" : [  ]
				}

			}
, 			{
				"patchline" : 				{
					"source" : [ "obj-22", 2 ],
					"destination" : [ "obj-7", 1 ],
					"hidden" : 0,
					"midpoints" : [  ]
				}

			}
 ]
	}

}
