{
	"patcher" : 	{
		"fileversion" : 1,
		"appversion" : 		{
			"major" : 5,
			"minor" : 1,
			"revision" : 9
		}
,
		"rect" : [ 326.0, 51.0, 576.0, 346.0 ],
		"bgcolor" : [ 1.0, 0.94902, 0.0, 1.0 ],
		"bglocked" : 0,
		"defrect" : [ 326.0, 51.0, 576.0, 346.0 ],
		"openrect" : [ 0.0, 0.0, 0.0, 0.0 ],
		"openinpresentation" : 1,
		"default_fontsize" : 12.0,
		"default_fontface" : 0,
		"default_fontname" : "Arial",
		"gridonopen" : 0,
		"gridsize" : [ 15.0, 15.0 ],
		"gridsnaponopen" : 0,
		"toolbarvisible" : 1,
		"boxanimatetime" : 200,
		"imprint" : 0,
		"enablehscroll" : 1,
		"enablevscroll" : 1,
		"devicewidth" : 0.0,
		"boxes" : [ 			{
				"box" : 				{
					"maxclass" : "message",
					"text" : "hear",
					"patching_rect" : [ 75.0, 525.0, 40.0, 21.0 ],
					"presentation" : 1,
					"id" : "obj-40",
					"fontname" : "Arial",
					"numinlets" : 2,
					"fontsize" : 14.0,
					"presentation_rect" : [ 361.0, 294.0, 40.0, 21.0 ],
					"numoutlets" : 1,
					"outlettype" : [ "" ]
				}

			}
, 			{
				"box" : 				{
					"maxclass" : "newobj",
					"text" : "*~ 0.5",
					"patching_rect" : [ 30.0, 615.0, 42.0, 20.0 ],
					"id" : "obj-32",
					"fontname" : "Arial",
					"numinlets" : 2,
					"fontsize" : 12.0,
					"numoutlets" : 1,
					"outlettype" : [ "signal" ]
				}

			}
, 			{
				"box" : 				{
					"maxclass" : "message",
					"text" : "0",
					"patching_rect" : [ 75.0, 555.0, 32.5, 18.0 ],
					"id" : "obj-31",
					"fontname" : "Arial",
					"numinlets" : 2,
					"fontsize" : 12.0,
					"numoutlets" : 1,
					"outlettype" : [ "" ]
				}

			}
, 			{
				"box" : 				{
					"maxclass" : "newobj",
					"text" : "dac~",
					"patching_rect" : [ 30.0, 645.0, 37.0, 20.0 ],
					"id" : "obj-21",
					"fontname" : "Arial",
					"numinlets" : 2,
					"fontsize" : 12.0,
					"numoutlets" : 0
				}

			}
, 			{
				"box" : 				{
					"maxclass" : "newobj",
					"text" : "sig~ 1",
					"patching_rect" : [ 30.0, 555.0, 43.0, 20.0 ],
					"id" : "obj-20",
					"fontname" : "Arial",
					"numinlets" : 1,
					"fontsize" : 12.0,
					"numoutlets" : 1,
					"outlettype" : [ "signal" ]
				}

			}
, 			{
				"box" : 				{
					"maxclass" : "newobj",
					"text" : "groove~ preview",
					"patching_rect" : [ 30.0, 585.0, 99.0, 20.0 ],
					"id" : "obj-18",
					"fontname" : "Arial",
					"numinlets" : 3,
					"fontsize" : 12.0,
					"numoutlets" : 2,
					"outlettype" : [ "signal", "signal" ]
				}

			}
, 			{
				"box" : 				{
					"maxclass" : "comment",
					"text" : "outlet outputs value aantal",
					"patching_rect" : [ 210.0, 720.0, 150.0, 20.0 ],
					"id" : "obj-19",
					"fontname" : "Arial",
					"numinlets" : 1,
					"fontsize" : 12.0,
					"numoutlets" : 0
				}

			}
, 			{
				"box" : 				{
					"maxclass" : "outlet",
					"patching_rect" : [ 270.0, 675.0, 30.0, 30.0 ],
					"id" : "obj-12",
					"numinlets" : 1,
					"numoutlets" : 0,
					"comment" : "value aantal (nr. of samples) every time it changes"
				}

			}
, 			{
				"box" : 				{
					"maxclass" : "newobj",
					"text" : "loadmess front",
					"patching_rect" : [ 345.0, 345.0, 89.0, 20.0 ],
					"id" : "obj-8",
					"fontname" : "Arial",
					"numinlets" : 1,
					"fontsize" : 12.0,
					"numoutlets" : 1,
					"outlettype" : [ "" ]
				}

			}
, 			{
				"box" : 				{
					"maxclass" : "newobj",
					"text" : "thispatcher",
					"patching_rect" : [ 345.0, 375.0, 69.0, 20.0 ],
					"id" : "obj-3",
					"fontname" : "Arial",
					"numinlets" : 1,
					"fontsize" : 12.0,
					"numoutlets" : 2,
					"outlettype" : [ "", "" ],
					"save" : [ "#N", "thispatcher", ";", "#Q", "end", ";" ]
				}

			}
, 			{
				"box" : 				{
					"maxclass" : "button",
					"patching_rect" : [ 420.0, 555.0, 20.0, 20.0 ],
					"id" : "obj-24",
					"numinlets" : 1,
					"numoutlets" : 1,
					"outlettype" : [ "bang" ]
				}

			}
, 			{
				"box" : 				{
					"maxclass" : "message",
					"text" : "add folder",
					"patching_rect" : [ 420.0, 525.0, 73.0, 21.0 ],
					"presentation" : 1,
					"id" : "obj-11",
					"fontname" : "Arial",
					"numinlets" : 2,
					"fontsize" : 14.0,
					"presentation_rect" : [ 30.0, 285.0, 71.0, 21.0 ],
					"numoutlets" : 1,
					"outlettype" : [ "" ]
				}

			}
, 			{
				"box" : 				{
					"maxclass" : "newobj",
					"text" : "opendialog fold",
					"patching_rect" : [ 420.0, 585.0, 92.0, 20.0 ],
					"id" : "obj-13",
					"fontname" : "Arial",
					"numinlets" : 1,
					"fontsize" : 12.0,
					"numoutlets" : 2,
					"outlettype" : [ "", "bang" ]
				}

			}
, 			{
				"box" : 				{
					"maxclass" : "number",
					"patching_rect" : [ 210.0, 675.0, 47.0, 23.0 ],
					"presentation" : 1,
					"cantchange" : 1,
					"id" : "obj-10",
					"fontname" : "Arial",
					"numinlets" : 1,
					"fontsize" : 14.0,
					"presentation_rect" : [ 135.0, 4.0, 47.0, 23.0 ],
					"numoutlets" : 2,
					"outlettype" : [ "int", "bang" ]
				}

			}
, 			{
				"box" : 				{
					"maxclass" : "comment",
					"text" : "aantal samples:",
					"patching_rect" : [ 300.0, 105.0, 119.0, 23.0 ],
					"presentation" : 1,
					"id" : "obj-2",
					"fontname" : "Arial",
					"numinlets" : 1,
					"fontsize" : 14.0,
					"presentation_rect" : [ 15.0, 4.0, 117.0, 23.0 ],
					"numoutlets" : 0
				}

			}
, 			{
				"box" : 				{
					"maxclass" : "comment",
					"text" : "index",
					"patching_rect" : [ 350.0, 555.0, 38.0, 20.0 ],
					"id" : "obj-74",
					"fontname" : "Arial",
					"numinlets" : 1,
					"fontsize" : 12.0,
					"numoutlets" : 0
				}

			}
, 			{
				"box" : 				{
					"maxclass" : "newobj",
					"text" : "patcher managesamples",
					"patching_rect" : [ 210.0, 645.0, 140.0, 20.0 ],
					"id" : "obj-72",
					"fontname" : "Arial",
					"numinlets" : 4,
					"fontsize" : 12.0,
					"numoutlets" : 0,
					"patcher" : 					{
						"fileversion" : 1,
						"appversion" : 						{
							"major" : 5,
							"minor" : 1,
							"revision" : 9
						}
,
						"rect" : [ 71.0, 60.0, 964.0, 592.0 ],
						"bglocked" : 0,
						"defrect" : [ 71.0, 60.0, 964.0, 592.0 ],
						"openrect" : [ 0.0, 0.0, 0.0, 0.0 ],
						"openinpresentation" : 0,
						"default_fontsize" : 12.0,
						"default_fontface" : 0,
						"default_fontname" : "Arial",
						"gridonopen" : 0,
						"gridsize" : [ 15.0, 15.0 ],
						"gridsnaponopen" : 0,
						"toolbarvisible" : 1,
						"boxanimatetime" : 200,
						"imprint" : 0,
						"enablehscroll" : 1,
						"enablevscroll" : 1,
						"devicewidth" : 0.0,
						"visible" : 1,
						"boxes" : [ 							{
								"box" : 								{
									"maxclass" : "newobj",
									"text" : "t b i",
									"patching_rect" : [ 30.0, 420.0, 32.5, 20.0 ],
									"id" : "obj-10",
									"fontname" : "Arial",
									"numinlets" : 1,
									"fontsize" : 12.0,
									"numoutlets" : 2,
									"outlettype" : [ "bang", "int" ]
								}

							}
, 							{
								"box" : 								{
									"maxclass" : "newobj",
									"text" : "value aantal",
									"patching_rect" : [ 30.0, 450.0, 75.0, 20.0 ],
									"id" : "obj-8",
									"fontname" : "Arial",
									"numinlets" : 1,
									"fontsize" : 12.0,
									"numoutlets" : 1,
									"outlettype" : [ "" ]
								}

							}
, 							{
								"box" : 								{
									"maxclass" : "newobj",
									"text" : "print tosflist",
									"patching_rect" : [ 556.0, 400.0, 71.0, 20.0 ],
									"id" : "obj-5",
									"fontname" : "Arial",
									"numinlets" : 1,
									"fontsize" : 12.0,
									"numoutlets" : 0
								}

							}
, 							{
								"box" : 								{
									"maxclass" : "comment",
									"text" : "add and remove to/from the sflist~",
									"patching_rect" : [ 705.0, 360.0, 205.0, 20.0 ],
									"id" : "obj-77",
									"fontname" : "Arial",
									"numinlets" : 1,
									"fontsize" : 12.0,
									"numoutlets" : 0
								}

							}
, 							{
								"box" : 								{
									"maxclass" : "newobj",
									"text" : "+ 1",
									"patching_rect" : [ 885.0, 285.0, 32.5, 20.0 ],
									"id" : "obj-73",
									"fontname" : "Arial",
									"numinlets" : 2,
									"fontsize" : 12.0,
									"numoutlets" : 1,
									"outlettype" : [ "int" ]
								}

							}
, 							{
								"box" : 								{
									"maxclass" : "newobj",
									"text" : "pack preload 2 filename",
									"patching_rect" : [ 825.0, 315.0, 138.0, 20.0 ],
									"id" : "obj-74",
									"fontname" : "Arial",
									"numinlets" : 3,
									"fontsize" : 12.0,
									"numoutlets" : 1,
									"outlettype" : [ "" ]
								}

							}
, 							{
								"box" : 								{
									"maxclass" : "newobj",
									"text" : "t b i s",
									"patching_rect" : [ 825.0, 255.0, 46.0, 20.0 ],
									"id" : "obj-75",
									"fontname" : "Arial",
									"numinlets" : 1,
									"fontsize" : 12.0,
									"numoutlets" : 3,
									"outlettype" : [ "bang", "int", "" ]
								}

							}
, 							{
								"box" : 								{
									"maxclass" : "newobj",
									"text" : "+ 1",
									"patching_rect" : [ 750.0, 285.0, 32.5, 20.0 ],
									"id" : "obj-72",
									"fontname" : "Arial",
									"numinlets" : 2,
									"fontsize" : 12.0,
									"numoutlets" : 1,
									"outlettype" : [ "int" ]
								}

							}
, 							{
								"box" : 								{
									"maxclass" : "newobj",
									"text" : "+ 1",
									"patching_rect" : [ 660.0, 285.0, 32.5, 20.0 ],
									"id" : "obj-71",
									"fontname" : "Arial",
									"numinlets" : 2,
									"fontsize" : 12.0,
									"numoutlets" : 1,
									"outlettype" : [ "int" ]
								}

							}
, 							{
								"box" : 								{
									"maxclass" : "newobj",
									"text" : "p old",
									"patching_rect" : [ 510.0, 30.0, 37.0, 20.0 ],
									"id" : "obj-68",
									"fontname" : "Arial",
									"numinlets" : 0,
									"fontsize" : 12.0,
									"numoutlets" : 1,
									"outlettype" : [ "" ],
									"patcher" : 									{
										"fileversion" : 1,
										"appversion" : 										{
											"major" : 5,
											"minor" : 1,
											"revision" : 9
										}
,
										"rect" : [ 69.0, 69.0, 502.0, 549.0 ],
										"bglocked" : 0,
										"defrect" : [ 69.0, 69.0, 502.0, 549.0 ],
										"openrect" : [ 0.0, 0.0, 0.0, 0.0 ],
										"openinpresentation" : 0,
										"default_fontsize" : 12.0,
										"default_fontface" : 0,
										"default_fontname" : "Arial",
										"gridonopen" : 0,
										"gridsize" : [ 15.0, 15.0 ],
										"gridsnaponopen" : 0,
										"toolbarvisible" : 1,
										"boxanimatetime" : 200,
										"imprint" : 0,
										"enablehscroll" : 1,
										"enablevscroll" : 1,
										"devicewidth" : 0.0,
										"boxes" : [ 											{
												"box" : 												{
													"maxclass" : "comment",
													"text" : "after coll dump is over, aantal is updated",
													"linecount" : 4,
													"patching_rect" : [ 368.0, 345.0, 85.0, 62.0 ],
													"id" : "obj-69",
													"fontname" : "Arial",
													"numinlets" : 1,
													"fontsize" : 12.0,
													"numoutlets" : 0
												}

											}
, 											{
												"box" : 												{
													"maxclass" : "comment",
													"text" : "if zero entries in coll, make sure aantal is set to 0",
													"linecount" : 5,
													"patching_rect" : [ 375.0, 240.0, 75.0, 75.0 ],
													"id" : "obj-67",
													"fontname" : "Arial",
													"numinlets" : 1,
													"fontsize" : 12.0,
													"numoutlets" : 0
												}

											}
, 											{
												"box" : 												{
													"maxclass" : "newobj",
													"text" : "coll samplelist",
													"patching_rect" : [ 345.0, 150.0, 85.0, 20.0 ],
													"id" : "obj-64",
													"fontname" : "Arial",
													"numinlets" : 1,
													"fontsize" : 12.0,
													"numoutlets" : 4,
													"outlettype" : [ "", "", "", "" ],
													"saved_object_attributes" : 													{
														"embed" : 0
													}

												}

											}
, 											{
												"box" : 												{
													"maxclass" : "message",
													"text" : "1",
													"patching_rect" : [ 345.0, 240.0, 30.0, 18.0 ],
													"id" : "obj-61",
													"fontname" : "Arial",
													"numinlets" : 2,
													"fontsize" : 12.0,
													"numoutlets" : 1,
													"outlettype" : [ "" ]
												}

											}
, 											{
												"box" : 												{
													"maxclass" : "newobj",
													"text" : "select 1",
													"patching_rect" : [ 345.0, 210.0, 52.0, 20.0 ],
													"id" : "obj-59",
													"fontname" : "Arial",
													"numinlets" : 2,
													"fontsize" : 12.0,
													"numoutlets" : 2,
													"outlettype" : [ "bang", "" ]
												}

											}
, 											{
												"box" : 												{
													"maxclass" : "newobj",
													"text" : "== 0",
													"patching_rect" : [ 345.0, 180.0, 35.0, 20.0 ],
													"id" : "obj-58",
													"fontname" : "Arial",
													"numinlets" : 2,
													"fontsize" : 12.0,
													"numoutlets" : 1,
													"outlettype" : [ "int" ]
												}

											}
, 											{
												"box" : 												{
													"maxclass" : "newobj",
													"text" : "t b i",
													"patching_rect" : [ 330.0, 405.0, 32.5, 20.0 ],
													"id" : "obj-30",
													"fontname" : "Arial",
													"numinlets" : 1,
													"fontsize" : 12.0,
													"numoutlets" : 2,
													"outlettype" : [ "bang", "int" ]
												}

											}
, 											{
												"box" : 												{
													"maxclass" : "outlet",
													"patching_rect" : [ 330.0, 465.0, 30.0, 30.0 ],
													"id" : "obj-5",
													"numinlets" : 1,
													"numoutlets" : 0,
													"comment" : "the current amount of samples in sflist~"
												}

											}
, 											{
												"box" : 												{
													"maxclass" : "newobj",
													"text" : "r sync",
													"patching_rect" : [ 45.0, 45.0, 43.0, 20.0 ],
													"id" : "obj-46",
													"fontname" : "Arial",
													"numinlets" : 0,
													"fontsize" : 12.0,
													"numoutlets" : 1,
													"outlettype" : [ "" ]
												}

											}
, 											{
												"box" : 												{
													"maxclass" : "comment",
													"text" : "< syncs sflist~ with coll",
													"patching_rect" : [ 225.0, 75.0, 137.0, 20.0 ],
													"id" : "obj-42",
													"fontname" : "Arial",
													"numinlets" : 1,
													"fontsize" : 12.0,
													"numoutlets" : 0
												}

											}
, 											{
												"box" : 												{
													"maxclass" : "newobj",
													"text" : "- 1",
													"patching_rect" : [ 330.0, 375.0, 32.5, 20.0 ],
													"id" : "obj-11",
													"fontname" : "Arial",
													"numinlets" : 2,
													"fontsize" : 12.0,
													"numoutlets" : 1,
													"outlettype" : [ "int" ]
												}

											}
, 											{
												"box" : 												{
													"maxclass" : "newobj",
													"text" : "int",
													"patching_rect" : [ 330.0, 345.0, 33.5, 20.0 ],
													"id" : "obj-10",
													"fontname" : "Arial",
													"numinlets" : 2,
													"fontsize" : 12.0,
													"numoutlets" : 1,
													"outlettype" : [ "int" ]
												}

											}
, 											{
												"box" : 												{
													"maxclass" : "newobj",
													"text" : "value aantal",
													"patching_rect" : [ 330.0, 435.0, 75.0, 20.0 ],
													"id" : "obj-8",
													"fontname" : "Arial",
													"numinlets" : 1,
													"fontsize" : 12.0,
													"numoutlets" : 1,
													"outlettype" : [ "" ]
												}

											}
, 											{
												"box" : 												{
													"maxclass" : "newobj",
													"text" : "t b s",
													"patching_rect" : [ 165.0, 210.0, 33.0, 20.0 ],
													"id" : "obj-57",
													"fontname" : "Arial",
													"numinlets" : 1,
													"fontsize" : 12.0,
													"numoutlets" : 2,
													"outlettype" : [ "bang", "" ]
												}

											}
, 											{
												"box" : 												{
													"maxclass" : "newobj",
													"text" : "unpack symbol filename",
													"patching_rect" : [ 45.0, 180.0, 139.0, 20.0 ],
													"id" : "obj-56",
													"fontname" : "Arial",
													"numinlets" : 1,
													"fontsize" : 12.0,
													"numoutlets" : 2,
													"outlettype" : [ "", "" ]
												}

											}
, 											{
												"box" : 												{
													"maxclass" : "newobj",
													"text" : "int 0",
													"patching_rect" : [ 165.0, 255.0, 33.0, 20.0 ],
													"id" : "obj-55",
													"fontname" : "Arial",
													"numinlets" : 2,
													"fontsize" : 12.0,
													"numoutlets" : 1,
													"outlettype" : [ "int" ]
												}

											}
, 											{
												"box" : 												{
													"maxclass" : "newobj",
													"text" : "pack preload 2 filename",
													"patching_rect" : [ 165.0, 360.0, 138.0, 20.0 ],
													"id" : "obj-32",
													"fontname" : "Arial",
													"numinlets" : 3,
													"fontsize" : 12.0,
													"numoutlets" : 1,
													"outlettype" : [ "" ]
												}

											}
, 											{
												"box" : 												{
													"maxclass" : "newobj",
													"text" : "t b i",
													"patching_rect" : [ 165.0, 330.0, 35.0, 20.0 ],
													"id" : "obj-34",
													"fontname" : "Arial",
													"numinlets" : 1,
													"fontsize" : 12.0,
													"numoutlets" : 2,
													"outlettype" : [ "bang", "int" ]
												}

											}
, 											{
												"box" : 												{
													"maxclass" : "newobj",
													"text" : "+ 1",
													"patching_rect" : [ 165.0, 285.0, 39.0, 20.0 ],
													"id" : "obj-54",
													"fontname" : "Arial",
													"numinlets" : 2,
													"fontsize" : 12.0,
													"numoutlets" : 1,
													"outlettype" : [ "int" ]
												}

											}
, 											{
												"box" : 												{
													"maxclass" : "newobj",
													"text" : "t dump renumber 1 clear length",
													"patching_rect" : [ 45.0, 75.0, 177.0, 20.0 ],
													"id" : "obj-51",
													"fontname" : "Arial",
													"numinlets" : 1,
													"fontsize" : 12.0,
													"numoutlets" : 5,
													"outlettype" : [ "dump", "renumber", "int", "clear", "length" ]
												}

											}
, 											{
												"box" : 												{
													"maxclass" : "newobj",
													"text" : "coll samplelist",
													"patching_rect" : [ 45.0, 135.0, 94.0, 20.0 ],
													"id" : "obj-13",
													"fontname" : "Arial",
													"numinlets" : 1,
													"fontsize" : 12.0,
													"numoutlets" : 4,
													"outlettype" : [ "", "", "", "" ],
													"saved_object_attributes" : 													{
														"embed" : 0
													}

												}

											}
, 											{
												"box" : 												{
													"maxclass" : "panel",
													"patching_rect" : [ 30.0, 30.0, 435.0, 480.0 ],
													"border" : 4,
													"bgcolor" : [ 0.862745, 0.992157, 0.819608, 1.0 ],
													"id" : "obj-48",
													"numinlets" : 1,
													"numoutlets" : 0,
													"bordercolor" : [ 0.219608, 0.27451, 0.160784, 1.0 ]
												}

											}
 ],
										"lines" : [ 											{
												"patchline" : 												{
													"source" : [ "obj-10", 0 ],
													"destination" : [ "obj-11", 0 ],
													"hidden" : 0,
													"midpoints" : [  ]
												}

											}
, 											{
												"patchline" : 												{
													"source" : [ "obj-13", 3 ],
													"destination" : [ "obj-10", 0 ],
													"hidden" : 0,
													"midpoints" : [ 129.5, 166.5, 339.5, 166.5 ]
												}

											}
, 											{
												"patchline" : 												{
													"source" : [ "obj-54", 0 ],
													"destination" : [ "obj-10", 1 ],
													"hidden" : 0,
													"midpoints" : [ 174.5, 316.5, 354.0, 316.5 ]
												}

											}
, 											{
												"patchline" : 												{
													"source" : [ "obj-57", 0 ],
													"destination" : [ "obj-55", 0 ],
													"hidden" : 0,
													"midpoints" : [  ]
												}

											}
, 											{
												"patchline" : 												{
													"source" : [ "obj-54", 0 ],
													"destination" : [ "obj-34", 0 ],
													"hidden" : 0,
													"midpoints" : [  ]
												}

											}
, 											{
												"patchline" : 												{
													"source" : [ "obj-56", 1 ],
													"destination" : [ "obj-57", 0 ],
													"hidden" : 0,
													"midpoints" : [  ]
												}

											}
, 											{
												"patchline" : 												{
													"source" : [ "obj-13", 0 ],
													"destination" : [ "obj-56", 0 ],
													"hidden" : 0,
													"midpoints" : [  ]
												}

											}
, 											{
												"patchline" : 												{
													"source" : [ "obj-54", 0 ],
													"destination" : [ "obj-55", 1 ],
													"hidden" : 0,
													"midpoints" : [ 174.5, 316.0, 206.0, 316.0, 206.0, 247.0, 188.5, 247.0 ]
												}

											}
, 											{
												"patchline" : 												{
													"source" : [ "obj-55", 0 ],
													"destination" : [ "obj-54", 0 ],
													"hidden" : 0,
													"midpoints" : [  ]
												}

											}
, 											{
												"patchline" : 												{
													"source" : [ "obj-34", 0 ],
													"destination" : [ "obj-32", 0 ],
													"hidden" : 0,
													"midpoints" : [  ]
												}

											}
, 											{
												"patchline" : 												{
													"source" : [ "obj-34", 1 ],
													"destination" : [ "obj-32", 1 ],
													"hidden" : 0,
													"midpoints" : [  ]
												}

											}
, 											{
												"patchline" : 												{
													"source" : [ "obj-57", 1 ],
													"destination" : [ "obj-32", 2 ],
													"hidden" : 0,
													"midpoints" : [ 188.5, 237.0, 293.5, 237.0 ]
												}

											}
, 											{
												"patchline" : 												{
													"source" : [ "obj-8", 0 ],
													"destination" : [ "obj-5", 0 ],
													"hidden" : 0,
													"midpoints" : [  ]
												}

											}
, 											{
												"patchline" : 												{
													"source" : [ "obj-11", 0 ],
													"destination" : [ "obj-30", 0 ],
													"hidden" : 0,
													"midpoints" : [  ]
												}

											}
, 											{
												"patchline" : 												{
													"source" : [ "obj-30", 1 ],
													"destination" : [ "obj-8", 0 ],
													"hidden" : 0,
													"midpoints" : [  ]
												}

											}
, 											{
												"patchline" : 												{
													"source" : [ "obj-30", 0 ],
													"destination" : [ "obj-8", 0 ],
													"hidden" : 0,
													"midpoints" : [  ]
												}

											}
, 											{
												"patchline" : 												{
													"source" : [ "obj-59", 0 ],
													"destination" : [ "obj-61", 0 ],
													"hidden" : 0,
													"midpoints" : [  ]
												}

											}
, 											{
												"patchline" : 												{
													"source" : [ "obj-61", 0 ],
													"destination" : [ "obj-10", 1 ],
													"hidden" : 0,
													"midpoints" : [  ]
												}

											}
, 											{
												"patchline" : 												{
													"source" : [ "obj-51", 0 ],
													"destination" : [ "obj-13", 0 ],
													"hidden" : 0,
													"midpoints" : [  ]
												}

											}
, 											{
												"patchline" : 												{
													"source" : [ "obj-51", 1 ],
													"destination" : [ "obj-13", 0 ],
													"hidden" : 0,
													"midpoints" : [  ]
												}

											}
, 											{
												"patchline" : 												{
													"source" : [ "obj-51", 2 ],
													"destination" : [ "obj-55", 1 ],
													"hidden" : 0,
													"midpoints" : [ 133.5, 123.0, 206.0, 123.0, 206.0, 247.0, 188.5, 247.0 ]
												}

											}
, 											{
												"patchline" : 												{
													"source" : [ "obj-46", 0 ],
													"destination" : [ "obj-51", 0 ],
													"hidden" : 0,
													"midpoints" : [  ]
												}

											}
, 											{
												"patchline" : 												{
													"source" : [ "obj-51", 4 ],
													"destination" : [ "obj-64", 0 ],
													"hidden" : 0,
													"midpoints" : [ 212.5, 104.0, 354.5, 104.0 ]
												}

											}
, 											{
												"patchline" : 												{
													"source" : [ "obj-64", 0 ],
													"destination" : [ "obj-58", 0 ],
													"hidden" : 0,
													"midpoints" : [  ]
												}

											}
, 											{
												"patchline" : 												{
													"source" : [ "obj-58", 0 ],
													"destination" : [ "obj-59", 0 ],
													"hidden" : 0,
													"midpoints" : [  ]
												}

											}
 ]
									}
,
									"saved_object_attributes" : 									{
										"default_fontname" : "Arial",
										"fontname" : "Arial",
										"default_fontsize" : 12.0,
										"globalpatchername" : "",
										"fontface" : 0,
										"fontsize" : 12.0,
										"default_fontface" : 0
									}

								}

							}
, 							{
								"box" : 								{
									"maxclass" : "message",
									"text" : "clear $1",
									"patching_rect" : [ 750.0, 315.0, 53.0, 18.0 ],
									"id" : "obj-41",
									"fontname" : "Arial",
									"numinlets" : 2,
									"fontsize" : 12.0,
									"numoutlets" : 1,
									"outlettype" : [ "" ]
								}

							}
, 							{
								"box" : 								{
									"maxclass" : "newobj",
									"text" : "pack preload 2 filename",
									"patching_rect" : [ 600.0, 315.0, 138.0, 20.0 ],
									"id" : "obj-17",
									"fontname" : "Arial",
									"numinlets" : 3,
									"fontsize" : 12.0,
									"numoutlets" : 1,
									"outlettype" : [ "" ]
								}

							}
, 							{
								"box" : 								{
									"maxclass" : "newobj",
									"text" : "t b i",
									"patching_rect" : [ 600.0, 255.0, 32.5, 20.0 ],
									"id" : "obj-27",
									"fontname" : "Arial",
									"numinlets" : 1,
									"fontsize" : 12.0,
									"numoutlets" : 2,
									"outlettype" : [ "bang", "int" ]
								}

							}
, 							{
								"box" : 								{
									"maxclass" : "newobj",
									"text" : "sflist~ soundfiles",
									"patching_rect" : [ 600.0, 360.0, 99.0, 20.0 ],
									"id" : "obj-36",
									"fontname" : "Arial",
									"numinlets" : 1,
									"fontsize" : 12.0,
									"numoutlets" : 1,
									"outlettype" : [ "" ],
									"save" : [ "#N", "sflist~", "soundfiles", 0, ";" ]
								}

							}
, 							{
								"box" : 								{
									"maxclass" : "newobj",
									"text" : "speedlim 100",
									"patching_rect" : [ 345.0, 105.0, 82.0, 20.0 ],
									"id" : "obj-25",
									"fontname" : "Arial",
									"numinlets" : 2,
									"fontsize" : 12.0,
									"numoutlets" : 1,
									"outlettype" : [ "" ]
								}

							}
, 							{
								"box" : 								{
									"maxclass" : "newobj",
									"text" : "speedlim 100",
									"patching_rect" : [ 30.0, 105.0, 82.0, 20.0 ],
									"id" : "obj-16",
									"fontname" : "Arial",
									"numinlets" : 2,
									"fontsize" : 12.0,
									"numoutlets" : 1,
									"outlettype" : [ "" ]
								}

							}
, 							{
								"box" : 								{
									"maxclass" : "newobj",
									"text" : "value aantal",
									"patching_rect" : [ 240.0, 360.0, 75.0, 20.0 ],
									"id" : "obj-9",
									"fontname" : "Arial",
									"numinlets" : 1,
									"fontsize" : 12.0,
									"numoutlets" : 1,
									"outlettype" : [ "" ]
								}

							}
, 							{
								"box" : 								{
									"maxclass" : "newobj",
									"text" : "coll samplelist",
									"patching_rect" : [ 30.0, 315.0, 85.0, 20.0 ],
									"id" : "obj-47",
									"fontname" : "Arial",
									"numinlets" : 1,
									"fontsize" : 12.0,
									"numoutlets" : 4,
									"outlettype" : [ "", "", "", "" ],
									"saved_object_attributes" : 									{
										"embed" : 0
									}

								}

							}
, 							{
								"box" : 								{
									"maxclass" : "newobj",
									"text" : "s sync",
									"patching_rect" : [ 450.0, 30.0, 45.0, 20.0 ],
									"id" : "obj-45",
									"fontname" : "Arial",
									"numinlets" : 1,
									"fontsize" : 12.0,
									"numoutlets" : 0
								}

							}
, 							{
								"box" : 								{
									"maxclass" : "newobj",
									"text" : "t b l",
									"patching_rect" : [ 225.0, 195.0, 32.5, 20.0 ],
									"id" : "obj-44",
									"fontname" : "Arial",
									"numinlets" : 1,
									"fontsize" : 12.0,
									"numoutlets" : 2,
									"outlettype" : [ "bang", "" ]
								}

							}
, 							{
								"box" : 								{
									"maxclass" : "newobj",
									"text" : "t s s",
									"patching_rect" : [ 345.0, 150.0, 57.0, 20.0 ],
									"id" : "obj-38",
									"fontname" : "Arial",
									"numinlets" : 1,
									"fontsize" : 12.0,
									"numoutlets" : 2,
									"outlettype" : [ "", "" ]
								}

							}
, 							{
								"box" : 								{
									"maxclass" : "newobj",
									"text" : "coll samplelist",
									"patching_rect" : [ 345.0, 540.0, 94.0, 20.0 ],
									"id" : "obj-37",
									"fontname" : "Arial",
									"numinlets" : 1,
									"fontsize" : 12.0,
									"numoutlets" : 4,
									"outlettype" : [ "", "", "", "" ],
									"saved_object_attributes" : 									{
										"embed" : 0
									}

								}

							}
, 							{
								"box" : 								{
									"maxclass" : "newobj",
									"text" : "pv collindex",
									"patching_rect" : [ 165.0, 360.0, 73.0, 20.0 ],
									"id" : "obj-33",
									"fontname" : "Arial",
									"numinlets" : 1,
									"fontsize" : 12.0,
									"numoutlets" : 1,
									"outlettype" : [ "" ]
								}

							}
, 							{
								"box" : 								{
									"maxclass" : "newobj",
									"text" : "loadmess 0",
									"patching_rect" : [ 165.0, 330.0, 72.0, 20.0 ],
									"id" : "obj-35",
									"fontname" : "Arial",
									"numinlets" : 1,
									"fontsize" : 12.0,
									"numoutlets" : 1,
									"outlettype" : [ "" ]
								}

							}
, 							{
								"box" : 								{
									"maxclass" : "newobj",
									"text" : "pv collindex",
									"patching_rect" : [ 345.0, 435.0, 73.0, 20.0 ],
									"id" : "obj-29",
									"fontname" : "Arial",
									"numinlets" : 1,
									"fontsize" : 12.0,
									"numoutlets" : 1,
									"outlettype" : [ "" ]
								}

							}
, 							{
								"box" : 								{
									"maxclass" : "newobj",
									"text" : "t b s",
									"patching_rect" : [ 345.0, 390.0, 55.0, 20.0 ],
									"id" : "obj-22",
									"fontname" : "Arial",
									"numinlets" : 1,
									"fontsize" : 12.0,
									"numoutlets" : 2,
									"outlettype" : [ "bang", "" ]
								}

							}
, 							{
								"box" : 								{
									"maxclass" : "newobj",
									"text" : "pack 0 s",
									"patching_rect" : [ 345.0, 510.0, 55.0, 20.0 ],
									"id" : "obj-23",
									"fontname" : "Arial",
									"numinlets" : 2,
									"fontsize" : 12.0,
									"numoutlets" : 1,
									"outlettype" : [ "" ]
								}

							}
, 							{
								"box" : 								{
									"maxclass" : "newobj",
									"text" : "+ 1",
									"patching_rect" : [ 345.0, 465.0, 32.5, 20.0 ],
									"id" : "obj-26",
									"fontname" : "Arial",
									"numinlets" : 2,
									"fontsize" : 12.0,
									"numoutlets" : 1,
									"outlettype" : [ "int" ]
								}

							}
, 							{
								"box" : 								{
									"maxclass" : "newobj",
									"text" : "zl reg",
									"patching_rect" : [ 345.0, 330.0, 61.0, 20.0 ],
									"id" : "obj-15",
									"fontname" : "Arial",
									"numinlets" : 2,
									"fontsize" : 12.0,
									"numoutlets" : 2,
									"outlettype" : [ "", "" ]
								}

							}
, 							{
								"box" : 								{
									"maxclass" : "comment",
									"text" : "dir + file name",
									"patching_rect" : [ 419.0, 378.0, 80.0, 19.0 ],
									"id" : "obj-14",
									"fontname" : "Arial",
									"numinlets" : 1,
									"fontsize" : 11.0,
									"numoutlets" : 0
								}

							}
, 							{
								"box" : 								{
									"maxclass" : "newobj",
									"text" : "t b s",
									"patching_rect" : [ 345.0, 285.0, 33.0, 20.0 ],
									"id" : "obj-65",
									"fontname" : "Arial",
									"numinlets" : 1,
									"fontsize" : 12.0,
									"numoutlets" : 2,
									"outlettype" : [ "bang", "" ]
								}

							}
, 							{
								"box" : 								{
									"maxclass" : "newobj",
									"text" : "sprintf symout %s%s",
									"patching_rect" : [ 345.0, 360.0, 122.0, 20.0 ],
									"id" : "obj-52",
									"fontname" : "Arial",
									"numinlets" : 2,
									"fontsize" : 12.0,
									"numoutlets" : 1,
									"outlettype" : [ "" ]
								}

							}
, 							{
								"box" : 								{
									"maxclass" : "newobj",
									"text" : "route append",
									"patching_rect" : [ 345.0, 255.0, 81.0, 20.0 ],
									"id" : "obj-31",
									"fontname" : "Arial",
									"numinlets" : 1,
									"fontsize" : 12.0,
									"numoutlets" : 2,
									"outlettype" : [ "", "" ]
								}

							}
, 							{
								"box" : 								{
									"maxclass" : "newobj",
									"text" : "loadmess types AIFF WAVE",
									"patching_rect" : [ 360.0, 195.0, 160.0, 20.0 ],
									"id" : "obj-28",
									"fontname" : "Arial",
									"numinlets" : 1,
									"fontsize" : 12.0,
									"numoutlets" : 1,
									"hidden" : 1,
									"outlettype" : [ "" ]
								}

							}
, 							{
								"box" : 								{
									"maxclass" : "newobj",
									"text" : "folder",
									"patching_rect" : [ 345.0, 225.0, 41.0, 20.0 ],
									"id" : "obj-6",
									"fontname" : "Arial",
									"numinlets" : 1,
									"fontsize" : 12.0,
									"numoutlets" : 2,
									"outlettype" : [ "", "int" ]
								}

							}
, 							{
								"box" : 								{
									"maxclass" : "inlet",
									"patching_rect" : [ 345.0, 30.0, 30.0, 30.0 ],
									"id" : "obj-4",
									"numinlets" : 0,
									"numoutlets" : 1,
									"outlettype" : [ "" ],
									"comment" : "folder path to add all samples from"
								}

							}
, 							{
								"box" : 								{
									"maxclass" : "message",
									"text" : "clear",
									"patching_rect" : [ 225.0, 165.0, 37.0, 18.0 ],
									"id" : "obj-12",
									"fontname" : "Arial",
									"numinlets" : 2,
									"fontsize" : 12.0,
									"numoutlets" : 1,
									"outlettype" : [ "" ]
								}

							}
, 							{
								"box" : 								{
									"maxclass" : "button",
									"patching_rect" : [ 225.0, 135.0, 20.0, 20.0 ],
									"id" : "obj-7",
									"numinlets" : 1,
									"numoutlets" : 1,
									"outlettype" : [ "bang" ]
								}

							}
, 							{
								"box" : 								{
									"maxclass" : "newobj",
									"text" : "t b s",
									"patching_rect" : [ 30.0, 135.0, 55.0, 20.0 ],
									"id" : "obj-21",
									"fontname" : "Arial",
									"numinlets" : 1,
									"fontsize" : 12.0,
									"numoutlets" : 2,
									"outlettype" : [ "bang", "" ]
								}

							}
, 							{
								"box" : 								{
									"maxclass" : "newobj",
									"text" : "pack 0 s",
									"patching_rect" : [ 30.0, 255.0, 55.0, 20.0 ],
									"id" : "obj-20",
									"fontname" : "Arial",
									"numinlets" : 2,
									"fontsize" : 12.0,
									"numoutlets" : 1,
									"outlettype" : [ "" ]
								}

							}
, 							{
								"box" : 								{
									"maxclass" : "newobj",
									"text" : "+ 1",
									"patching_rect" : [ 30.0, 210.0, 32.5, 20.0 ],
									"id" : "obj-19",
									"fontname" : "Arial",
									"numinlets" : 2,
									"fontsize" : 12.0,
									"numoutlets" : 1,
									"outlettype" : [ "int" ]
								}

							}
, 							{
								"box" : 								{
									"maxclass" : "newobj",
									"text" : "pv collindex",
									"patching_rect" : [ 30.0, 180.0, 73.0, 20.0 ],
									"id" : "obj-18",
									"fontname" : "Arial",
									"numinlets" : 1,
									"fontsize" : 12.0,
									"numoutlets" : 1,
									"outlettype" : [ "" ]
								}

							}
, 							{
								"box" : 								{
									"maxclass" : "message",
									"text" : "delete $1",
									"patching_rect" : [ 150.0, 135.0, 60.0, 18.0 ],
									"id" : "obj-24",
									"fontname" : "Arial",
									"numinlets" : 2,
									"fontsize" : 12.0,
									"numoutlets" : 1,
									"outlettype" : [ "" ]
								}

							}
, 							{
								"box" : 								{
									"maxclass" : "inlet",
									"patching_rect" : [ 225.0, 30.0, 30.0, 30.0 ],
									"id" : "obj-3",
									"numinlets" : 0,
									"numoutlets" : 1,
									"outlettype" : [ "" ],
									"comment" : "anything to clear list"
								}

							}
, 							{
								"box" : 								{
									"maxclass" : "inlet",
									"patching_rect" : [ 150.0, 30.0, 30.0, 30.0 ],
									"id" : "obj-2",
									"numinlets" : 0,
									"numoutlets" : 1,
									"outlettype" : [ "int" ],
									"comment" : "0-based index to remove"
								}

							}
, 							{
								"box" : 								{
									"maxclass" : "inlet",
									"patching_rect" : [ 30.0, 30.0, 30.0, 30.0 ],
									"id" : "obj-1",
									"numinlets" : 0,
									"numoutlets" : 1,
									"outlettype" : [ "" ],
									"comment" : "file path to add"
								}

							}
 ],
						"lines" : [ 							{
								"patchline" : 								{
									"source" : [ "obj-10", 0 ],
									"destination" : [ "obj-8", 0 ],
									"hidden" : 0,
									"midpoints" : [  ]
								}

							}
, 							{
								"patchline" : 								{
									"source" : [ "obj-10", 1 ],
									"destination" : [ "obj-8", 0 ],
									"hidden" : 0,
									"midpoints" : [  ]
								}

							}
, 							{
								"patchline" : 								{
									"source" : [ "obj-75", 1 ],
									"destination" : [ "obj-73", 0 ],
									"hidden" : 0,
									"midpoints" : [ 848.0, 282.5, 894.5, 282.5 ]
								}

							}
, 							{
								"patchline" : 								{
									"source" : [ "obj-73", 0 ],
									"destination" : [ "obj-74", 1 ],
									"hidden" : 0,
									"midpoints" : [  ]
								}

							}
, 							{
								"patchline" : 								{
									"source" : [ "obj-72", 0 ],
									"destination" : [ "obj-41", 0 ],
									"hidden" : 0,
									"midpoints" : [  ]
								}

							}
, 							{
								"patchline" : 								{
									"source" : [ "obj-2", 0 ],
									"destination" : [ "obj-72", 0 ],
									"hidden" : 0,
									"midpoints" : [ 159.5, 126.0, 759.5, 126.0 ]
								}

							}
, 							{
								"patchline" : 								{
									"source" : [ "obj-71", 0 ],
									"destination" : [ "obj-17", 1 ],
									"hidden" : 0,
									"midpoints" : [  ]
								}

							}
, 							{
								"patchline" : 								{
									"source" : [ "obj-27", 1 ],
									"destination" : [ "obj-71", 0 ],
									"hidden" : 0,
									"midpoints" : [  ]
								}

							}
, 							{
								"patchline" : 								{
									"source" : [ "obj-4", 0 ],
									"destination" : [ "obj-25", 0 ],
									"hidden" : 0,
									"midpoints" : [  ]
								}

							}
, 							{
								"patchline" : 								{
									"source" : [ "obj-16", 0 ],
									"destination" : [ "obj-21", 0 ],
									"hidden" : 0,
									"midpoints" : [  ]
								}

							}
, 							{
								"patchline" : 								{
									"source" : [ "obj-1", 0 ],
									"destination" : [ "obj-16", 0 ],
									"hidden" : 0,
									"midpoints" : [  ]
								}

							}
, 							{
								"patchline" : 								{
									"source" : [ "obj-35", 0 ],
									"destination" : [ "obj-33", 0 ],
									"hidden" : 0,
									"midpoints" : [  ]
								}

							}
, 							{
								"patchline" : 								{
									"source" : [ "obj-21", 1 ],
									"destination" : [ "obj-20", 1 ],
									"hidden" : 0,
									"midpoints" : [ 75.5, 175.0, 107.0, 175.0, 107.0, 203.0, 75.5, 203.0 ]
								}

							}
, 							{
								"patchline" : 								{
									"source" : [ "obj-19", 0 ],
									"destination" : [ "obj-18", 0 ],
									"hidden" : 0,
									"midpoints" : [ 39.5, 240.0, 65.0, 240.0, 65.0, 166.0, 39.5, 166.0 ]
								}

							}
, 							{
								"patchline" : 								{
									"source" : [ "obj-21", 0 ],
									"destination" : [ "obj-18", 0 ],
									"hidden" : 0,
									"midpoints" : [  ]
								}

							}
, 							{
								"patchline" : 								{
									"source" : [ "obj-18", 0 ],
									"destination" : [ "obj-19", 0 ],
									"hidden" : 0,
									"midpoints" : [  ]
								}

							}
, 							{
								"patchline" : 								{
									"source" : [ "obj-26", 0 ],
									"destination" : [ "obj-29", 0 ],
									"hidden" : 0,
									"midpoints" : [ 354.5, 490.0, 381.0, 490.0, 381.0, 425.0, 354.5, 425.0 ]
								}

							}
, 							{
								"patchline" : 								{
									"source" : [ "obj-29", 0 ],
									"destination" : [ "obj-26", 0 ],
									"hidden" : 0,
									"midpoints" : [  ]
								}

							}
, 							{
								"patchline" : 								{
									"source" : [ "obj-22", 0 ],
									"destination" : [ "obj-29", 0 ],
									"hidden" : 0,
									"midpoints" : [  ]
								}

							}
, 							{
								"patchline" : 								{
									"source" : [ "obj-7", 0 ],
									"destination" : [ "obj-12", 0 ],
									"hidden" : 0,
									"midpoints" : [  ]
								}

							}
, 							{
								"patchline" : 								{
									"source" : [ "obj-3", 0 ],
									"destination" : [ "obj-7", 0 ],
									"hidden" : 0,
									"midpoints" : [  ]
								}

							}
, 							{
								"patchline" : 								{
									"source" : [ "obj-19", 0 ],
									"destination" : [ "obj-20", 0 ],
									"hidden" : 0,
									"midpoints" : [  ]
								}

							}
, 							{
								"patchline" : 								{
									"source" : [ "obj-2", 0 ],
									"destination" : [ "obj-24", 0 ],
									"hidden" : 0,
									"midpoints" : [  ]
								}

							}
, 							{
								"patchline" : 								{
									"source" : [ "obj-6", 0 ],
									"destination" : [ "obj-31", 0 ],
									"hidden" : 0,
									"midpoints" : [  ]
								}

							}
, 							{
								"patchline" : 								{
									"source" : [ "obj-28", 0 ],
									"destination" : [ "obj-6", 0 ],
									"hidden" : 1,
									"midpoints" : [  ]
								}

							}
, 							{
								"patchline" : 								{
									"source" : [ "obj-31", 0 ],
									"destination" : [ "obj-65", 0 ],
									"hidden" : 0,
									"midpoints" : [  ]
								}

							}
, 							{
								"patchline" : 								{
									"source" : [ "obj-65", 0 ],
									"destination" : [ "obj-15", 0 ],
									"hidden" : 0,
									"midpoints" : [  ]
								}

							}
, 							{
								"patchline" : 								{
									"source" : [ "obj-22", 1 ],
									"destination" : [ "obj-23", 1 ],
									"hidden" : 0,
									"midpoints" : [ 390.5, 427.0, 420.0, 427.0, 420.0, 462.0, 390.5, 462.0 ]
								}

							}
, 							{
								"patchline" : 								{
									"source" : [ "obj-26", 0 ],
									"destination" : [ "obj-23", 0 ],
									"hidden" : 0,
									"midpoints" : [  ]
								}

							}
, 							{
								"patchline" : 								{
									"source" : [ "obj-23", 0 ],
									"destination" : [ "obj-37", 0 ],
									"hidden" : 0,
									"midpoints" : [  ]
								}

							}
, 							{
								"patchline" : 								{
									"source" : [ "obj-15", 0 ],
									"destination" : [ "obj-52", 0 ],
									"hidden" : 0,
									"midpoints" : [  ]
								}

							}
, 							{
								"patchline" : 								{
									"source" : [ "obj-65", 1 ],
									"destination" : [ "obj-52", 1 ],
									"hidden" : 0,
									"midpoints" : [ 368.5, 318.0, 457.5, 318.0 ]
								}

							}
, 							{
								"patchline" : 								{
									"source" : [ "obj-52", 0 ],
									"destination" : [ "obj-22", 0 ],
									"hidden" : 0,
									"midpoints" : [  ]
								}

							}
, 							{
								"patchline" : 								{
									"source" : [ "obj-35", 0 ],
									"destination" : [ "obj-9", 0 ],
									"hidden" : 0,
									"midpoints" : [ 174.5, 354.5, 249.5, 354.5 ]
								}

							}
, 							{
								"patchline" : 								{
									"source" : [ "obj-17", 0 ],
									"destination" : [ "obj-36", 0 ],
									"hidden" : 0,
									"midpoints" : [  ]
								}

							}
, 							{
								"patchline" : 								{
									"source" : [ "obj-44", 0 ],
									"destination" : [ "obj-35", 0 ],
									"hidden" : 0,
									"midpoints" : [  ]
								}

							}
, 							{
								"patchline" : 								{
									"source" : [ "obj-12", 0 ],
									"destination" : [ "obj-44", 0 ],
									"hidden" : 0,
									"midpoints" : [  ]
								}

							}
, 							{
								"patchline" : 								{
									"source" : [ "obj-44", 1 ],
									"destination" : [ "obj-47", 0 ],
									"hidden" : 0,
									"midpoints" : [ 248.0, 295.0, 39.5, 295.0 ]
								}

							}
, 							{
								"patchline" : 								{
									"source" : [ "obj-24", 0 ],
									"destination" : [ "obj-47", 0 ],
									"hidden" : 0,
									"midpoints" : [ 159.5, 295.0, 39.5, 295.0 ]
								}

							}
, 							{
								"patchline" : 								{
									"source" : [ "obj-1", 0 ],
									"destination" : [ "obj-17", 2 ],
									"hidden" : 0,
									"midpoints" : [ 39.5, 94.0, 728.5, 94.0 ]
								}

							}
, 							{
								"patchline" : 								{
									"source" : [ "obj-19", 0 ],
									"destination" : [ "obj-27", 0 ],
									"hidden" : 0,
									"midpoints" : [ 39.5, 248.0, 609.5, 248.0 ]
								}

							}
, 							{
								"patchline" : 								{
									"source" : [ "obj-20", 0 ],
									"destination" : [ "obj-47", 0 ],
									"hidden" : 0,
									"midpoints" : [  ]
								}

							}
, 							{
								"patchline" : 								{
									"source" : [ "obj-12", 0 ],
									"destination" : [ "obj-36", 0 ],
									"hidden" : 0,
									"midpoints" : [ 234.5, 188.0, 593.0, 188.0, 593.0, 345.0, 609.5, 345.0 ]
								}

							}
, 							{
								"patchline" : 								{
									"source" : [ "obj-27", 0 ],
									"destination" : [ "obj-17", 0 ],
									"hidden" : 0,
									"midpoints" : [  ]
								}

							}
, 							{
								"patchline" : 								{
									"source" : [ "obj-41", 0 ],
									"destination" : [ "obj-36", 0 ],
									"hidden" : 0,
									"midpoints" : [ 759.5, 345.0, 609.5, 345.0 ]
								}

							}
, 							{
								"patchline" : 								{
									"source" : [ "obj-75", 0 ],
									"destination" : [ "obj-74", 0 ],
									"hidden" : 0,
									"midpoints" : [  ]
								}

							}
, 							{
								"patchline" : 								{
									"source" : [ "obj-75", 2 ],
									"destination" : [ "obj-74", 2 ],
									"hidden" : 0,
									"midpoints" : [ 861.5, 278.5, 953.5, 278.5 ]
								}

							}
, 							{
								"patchline" : 								{
									"source" : [ "obj-23", 0 ],
									"destination" : [ "obj-75", 0 ],
									"hidden" : 0,
									"midpoints" : [ 354.5, 536.0, 786.0, 536.0, 786.0, 247.0, 834.5, 247.0 ]
								}

							}
, 							{
								"patchline" : 								{
									"source" : [ "obj-74", 0 ],
									"destination" : [ "obj-36", 0 ],
									"hidden" : 0,
									"midpoints" : [ 834.5, 345.0, 609.5, 345.0 ]
								}

							}
, 							{
								"patchline" : 								{
									"source" : [ "obj-25", 0 ],
									"destination" : [ "obj-38", 0 ],
									"hidden" : 0,
									"midpoints" : [  ]
								}

							}
, 							{
								"patchline" : 								{
									"source" : [ "obj-38", 0 ],
									"destination" : [ "obj-6", 0 ],
									"hidden" : 0,
									"midpoints" : [  ]
								}

							}
, 							{
								"patchline" : 								{
									"source" : [ "obj-38", 1 ],
									"destination" : [ "obj-15", 1 ],
									"hidden" : 0,
									"midpoints" : [  ]
								}

							}
, 							{
								"patchline" : 								{
									"source" : [ "obj-12", 0 ],
									"destination" : [ "obj-5", 0 ],
									"hidden" : 0,
									"midpoints" : [  ]
								}

							}
, 							{
								"patchline" : 								{
									"source" : [ "obj-17", 0 ],
									"destination" : [ "obj-5", 0 ],
									"hidden" : 0,
									"midpoints" : [  ]
								}

							}
, 							{
								"patchline" : 								{
									"source" : [ "obj-41", 0 ],
									"destination" : [ "obj-5", 0 ],
									"hidden" : 0,
									"midpoints" : [  ]
								}

							}
, 							{
								"patchline" : 								{
									"source" : [ "obj-74", 0 ],
									"destination" : [ "obj-5", 0 ],
									"hidden" : 0,
									"midpoints" : [  ]
								}

							}
 ]
					}
,
					"saved_object_attributes" : 					{
						"default_fontname" : "Arial",
						"fontname" : "Arial",
						"default_fontsize" : 12.0,
						"globalpatchername" : "",
						"fontface" : 0,
						"fontsize" : 12.0,
						"default_fontface" : 0
					}

				}

			}
, 			{
				"box" : 				{
					"maxclass" : "comment",
					"text" : "or:",
					"frgb" : [ 1.0, 1.0, 0.0, 1.0 ],
					"patching_rect" : [ 270.0, 75.0, 30.0, 23.0 ],
					"presentation" : 1,
					"id" : "obj-71",
					"fontname" : "Arial",
					"numinlets" : 1,
					"fontsize" : 14.0,
					"presentation_rect" : [ 111.0, 285.0, 27.0, 23.0 ],
					"numoutlets" : 0,
					"textcolor" : [ 1.0, 1.0, 0.0, 1.0 ]
				}

			}
, 			{
				"box" : 				{
					"maxclass" : "comment",
					"text" : "drop folders here",
					"frgb" : [ 1.0, 1.0, 0.0, 1.0 ],
					"patching_rect" : [ 300.0, 75.0, 119.0, 23.0 ],
					"presentation" : 1,
					"id" : "obj-70",
					"fontname" : "Arial",
					"numinlets" : 1,
					"fontsize" : 14.0,
					"presentation_rect" : [ 137.0, 285.0, 117.0, 23.0 ],
					"numoutlets" : 0,
					"textcolor" : [ 1.0, 1.0, 0.0, 1.0 ]
				}

			}
, 			{
				"box" : 				{
					"maxclass" : "comment",
					"text" : "< to drop folders",
					"patching_rect" : [ 465.0, 465.0, 98.0, 20.0 ],
					"id" : "obj-22",
					"fontname" : "Arial",
					"numinlets" : 1,
					"fontsize" : 12.0,
					"numoutlets" : 0
				}

			}
, 			{
				"box" : 				{
					"maxclass" : "dropfile",
					"patching_rect" : [ 360.0, 465.0, 103.0, 20.0 ],
					"presentation" : 1,
					"id" : "obj-27",
					"numinlets" : 1,
					"presentation_rect" : [ 134.0, 285.0, 122.0, 23.0 ],
					"numoutlets" : 2,
					"types" : [  ],
					"outlettype" : [ "", "" ],
					"bordercolor" : [ 0.94902, 1.0, 0.0, 1.0 ]
				}

			}
, 			{
				"box" : 				{
					"maxclass" : "comment",
					"text" : "< to drop files",
					"patching_rect" : [ 465.0, 435.0, 86.0, 20.0 ],
					"id" : "obj-17",
					"fontname" : "Arial",
					"numinlets" : 1,
					"fontsize" : 12.0,
					"numoutlets" : 0
				}

			}
, 			{
				"box" : 				{
					"maxclass" : "comment",
					"text" : "or:",
					"frgb" : [ 1.0, 1.0, 0.0, 1.0 ],
					"patching_rect" : [ 270.0, 45.0, 30.0, 23.0 ],
					"presentation" : 1,
					"id" : "obj-26",
					"fontname" : "Arial",
					"numinlets" : 1,
					"fontsize" : 14.0,
					"presentation_rect" : [ 111.0, 240.0, 27.0, 23.0 ],
					"numoutlets" : 0,
					"textcolor" : [ 1.0, 1.0, 0.0, 1.0 ]
				}

			}
, 			{
				"box" : 				{
					"maxclass" : "newobj",
					"text" : "loadmess set preview",
					"patching_rect" : [ 435.0, 45.0, 126.0, 20.0 ],
					"id" : "obj-48",
					"fontname" : "Arial",
					"numinlets" : 1,
					"fontsize" : 12.0,
					"numoutlets" : 1,
					"outlettype" : [ "" ]
				}

			}
, 			{
				"box" : 				{
					"maxclass" : "comment",
					"text" : "drop sounds on list",
					"linecount" : 2,
					"frgb" : [ 1.0, 1.0, 0.0, 1.0 ],
					"patching_rect" : [ 300.0, 45.0, 119.0, 39.0 ],
					"presentation" : 1,
					"id" : "obj-47",
					"fontname" : "Arial",
					"numinlets" : 1,
					"fontsize" : 14.0,
					"presentation_rect" : [ 135.0, 240.0, 128.0, 23.0 ],
					"numoutlets" : 0,
					"textcolor" : [ 1.0, 1.0, 0.0, 1.0 ]
				}

			}
, 			{
				"box" : 				{
					"maxclass" : "button",
					"patching_rect" : [ 270.0, 555.0, 20.0, 20.0 ],
					"id" : "obj-44",
					"numinlets" : 1,
					"numoutlets" : 1,
					"outlettype" : [ "bang" ]
				}

			}
, 			{
				"box" : 				{
					"maxclass" : "message",
					"text" : "remove",
					"patching_rect" : [ 270.0, 525.0, 58.0, 21.0 ],
					"presentation" : 1,
					"id" : "obj-42",
					"fontname" : "Arial",
					"numinlets" : 2,
					"fontsize" : 14.0,
					"presentation_rect" : [ 481.0, 294.0, 58.0, 21.0 ],
					"numoutlets" : 1,
					"outlettype" : [ "" ]
				}

			}
, 			{
				"box" : 				{
					"maxclass" : "message",
					"text" : "add file",
					"patching_rect" : [ 150.0, 525.0, 62.0, 21.0 ],
					"presentation" : 1,
					"id" : "obj-39",
					"fontname" : "Arial",
					"numinlets" : 2,
					"fontsize" : 14.0,
					"presentation_rect" : [ 30.0, 240.0, 56.0, 21.0 ],
					"numoutlets" : 1,
					"outlettype" : [ "" ]
				}

			}
, 			{
				"box" : 				{
					"maxclass" : "message",
					"text" : "clear",
					"patching_rect" : [ 315.0, 600.0, 42.0, 21.0 ],
					"presentation" : 1,
					"id" : "obj-37",
					"fontname" : "Arial",
					"numinlets" : 2,
					"fontsize" : 14.0,
					"presentation_rect" : [ 280.0, 240.0, 42.0, 21.0 ],
					"numoutlets" : 1,
					"outlettype" : [ "" ]
				}

			}
, 			{
				"box" : 				{
					"maxclass" : "number",
					"patching_rect" : [ 300.0, 555.0, 50.0, 20.0 ],
					"id" : "obj-33",
					"fontname" : "Arial",
					"numinlets" : 1,
					"fontsize" : 12.0,
					"numoutlets" : 2,
					"outlettype" : [ "int", "bang" ]
				}

			}
, 			{
				"box" : 				{
					"maxclass" : "newobj",
					"text" : "loadbang",
					"patching_rect" : [ 165.0, 15.0, 60.0, 20.0 ],
					"id" : "obj-30",
					"fontname" : "Arial",
					"numinlets" : 1,
					"fontsize" : 12.0,
					"numoutlets" : 1,
					"outlettype" : [ "bang" ]
				}

			}
, 			{
				"box" : 				{
					"maxclass" : "message",
					"text" : "col 1 width 600",
					"patching_rect" : [ 60.0, 75.0, 91.0, 18.0 ],
					"id" : "obj-29",
					"fontname" : "Arial",
					"numinlets" : 2,
					"fontsize" : 12.0,
					"numoutlets" : 1,
					"outlettype" : [ "" ]
				}

			}
, 			{
				"box" : 				{
					"maxclass" : "message",
					"text" : "col 0 width 10",
					"patching_rect" : [ 60.0, 45.0, 84.0, 18.0 ],
					"id" : "obj-23",
					"fontname" : "Arial",
					"numinlets" : 2,
					"fontsize" : 12.0,
					"numoutlets" : 1,
					"outlettype" : [ "" ]
				}

			}
, 			{
				"box" : 				{
					"maxclass" : "message",
					"text" : "refer samplelist",
					"patching_rect" : [ 60.0, 105.0, 92.0, 18.0 ],
					"id" : "obj-16",
					"fontname" : "Arial",
					"numinlets" : 2,
					"fontsize" : 12.0,
					"numoutlets" : 1,
					"outlettype" : [ "" ]
				}

			}
, 			{
				"box" : 				{
					"maxclass" : "newobj",
					"text" : "int",
					"patching_rect" : [ 270.0, 600.0, 33.5, 20.0 ],
					"id" : "obj-1",
					"fontname" : "Arial",
					"numinlets" : 2,
					"fontsize" : 12.0,
					"numoutlets" : 1,
					"outlettype" : [ "int" ]
				}

			}
, 			{
				"box" : 				{
					"maxclass" : "newobj",
					"text" : "unpack 0 1 val",
					"patching_rect" : [ 15.0, 345.0, 109.0, 20.0 ],
					"id" : "obj-35",
					"fontname" : "Arial",
					"numinlets" : 1,
					"fontsize" : 12.0,
					"numoutlets" : 3,
					"outlettype" : [ "int", "int", "" ]
				}

			}
, 			{
				"box" : 				{
					"maxclass" : "jit.cellblock",
					"patching_rect" : [ 15.0, 135.0, 543.0, 193.0 ],
					"presentation" : 1,
					"bgcolor" : [ 0.0, 0.0, 0.0, 1.0 ],
					"id" : "obj-14",
					"fontname" : "Arial",
					"fgcolor" : [ 0.94902, 1.0, 0.0, 1.0 ],
					"cols" : 2,
					"hcellcolor" : [ 0.352941, 0.172549, 0.52549, 1.0 ],
					"numinlets" : 2,
					"rows" : 2,
					"fontsize" : 12.0,
					"presentation_rect" : [ 15.0, 30.0, 543.0, 193.0 ],
					"numoutlets" : 4,
					"colwidth" : 60,
					"outlettype" : [ "list", "", "", "" ],
					"coldef" : [ [ 0, 10, 1, 0.0, 0.0, 0.0, 1.0, 1, 0.0, 0.0, 0.0, 1.0, -1, -1, -1 ], [ 1, 600, 1, 0.0, 0.0, 0.0, 1.0, 1, 0.0, 0.0, 0.0, 1.0, -1, -1, -1 ] ]
				}

			}
, 			{
				"box" : 				{
					"maxclass" : "message",
					"text" : "replace $1",
					"patching_rect" : [ 105.0, 390.0, 67.0, 18.0 ],
					"id" : "obj-9",
					"fontname" : "Arial",
					"numinlets" : 2,
					"fontsize" : 12.0,
					"numoutlets" : 1,
					"outlettype" : [ "" ]
				}

			}
, 			{
				"box" : 				{
					"maxclass" : "newobj",
					"text" : "buffer~ preview",
					"patching_rect" : [ 105.0, 420.0, 93.0, 20.0 ],
					"id" : "obj-7",
					"fontname" : "Arial",
					"numinlets" : 1,
					"fontsize" : 12.0,
					"numoutlets" : 2,
					"outlettype" : [ "float", "bang" ]
				}

			}
, 			{
				"box" : 				{
					"maxclass" : "waveform~",
					"ticks" : 1,
					"labelbgcolor" : [ 0.94902, 1.0, 0.0, 1.0 ],
					"patching_rect" : [ 435.0, 75.0, 90.0, 45.0 ],
					"presentation" : 1,
					"selectioncolor" : [ 1.0, 0.94902, 0.0, 0.501961 ],
					"bgcolor" : [ 1.0, 1.0, 1.0, 1.0 ],
					"id" : "obj-6",
					"buffername" : "preview",
					"grid" : 100.0,
					"norulerclick" : 1,
					"numinlets" : 5,
					"attr_bpm" : 100.0,
					"presentation_rect" : [ 360.0, 240.0, 184.0, 45.0 ],
					"numoutlets" : 6,
					"outlettype" : [ "float", "float", "float", "float", "list", "" ],
					"waveformcolor" : [ 0.0, 0.0, 0.0, 1.0 ],
					"textcolor" : [  ]
				}

			}
, 			{
				"box" : 				{
					"maxclass" : "message",
					"text" : "sound",
					"patching_rect" : [ 150.0, 555.0, 43.0, 18.0 ],
					"id" : "obj-5",
					"fontname" : "Arial",
					"numinlets" : 2,
					"fontsize" : 12.0,
					"numoutlets" : 1,
					"outlettype" : [ "" ]
				}

			}
, 			{
				"box" : 				{
					"maxclass" : "newobj",
					"text" : "opendialog",
					"patching_rect" : [ 150.0, 585.0, 69.0, 20.0 ],
					"id" : "obj-4",
					"fontname" : "Arial",
					"numinlets" : 1,
					"fontsize" : 12.0,
					"numoutlets" : 2,
					"outlettype" : [ "", "bang" ]
				}

			}
, 			{
				"box" : 				{
					"maxclass" : "panel",
					"patching_rect" : [ 350.0, 422.0, 122.0, 79.0 ],
					"presentation" : 1,
					"border" : 1,
					"bgcolor" : [ 0.0, 0.0, 0.0, 1.0 ],
					"id" : "obj-41",
					"numinlets" : 1,
					"presentation_rect" : [ 15.0, 225.0, 544.0, 105.0 ],
					"numoutlets" : 0,
					"rounded" : 0,
					"bordercolor" : [ 1.0, 1.0, 0.0, 1.0 ]
				}

			}
, 			{
				"box" : 				{
					"maxclass" : "dropfile",
					"patching_rect" : [ 360.0, 435.0, 103.0, 20.0 ],
					"presentation" : 1,
					"id" : "obj-15",
					"numinlets" : 1,
					"presentation_rect" : [ 11.0, 25.0, 551.0, 202.0 ],
					"numoutlets" : 2,
					"types" : [  ],
					"outlettype" : [ "", "" ],
					"bordercolor" : [ 0.94902, 1.0, 0.0, 1.0 ]
				}

			}
 ],
		"lines" : [ 			{
				"patchline" : 				{
					"source" : [ "obj-40", 0 ],
					"destination" : [ "obj-31", 0 ],
					"hidden" : 0,
					"midpoints" : [  ]
				}

			}
, 			{
				"patchline" : 				{
					"source" : [ "obj-32", 0 ],
					"destination" : [ "obj-21", 0 ],
					"hidden" : 0,
					"midpoints" : [  ]
				}

			}
, 			{
				"patchline" : 				{
					"source" : [ "obj-32", 0 ],
					"destination" : [ "obj-21", 1 ],
					"hidden" : 0,
					"midpoints" : [  ]
				}

			}
, 			{
				"patchline" : 				{
					"source" : [ "obj-18", 0 ],
					"destination" : [ "obj-32", 0 ],
					"hidden" : 0,
					"midpoints" : [  ]
				}

			}
, 			{
				"patchline" : 				{
					"source" : [ "obj-31", 0 ],
					"destination" : [ "obj-18", 0 ],
					"hidden" : 0,
					"midpoints" : [  ]
				}

			}
, 			{
				"patchline" : 				{
					"source" : [ "obj-20", 0 ],
					"destination" : [ "obj-18", 0 ],
					"hidden" : 0,
					"midpoints" : [  ]
				}

			}
, 			{
				"patchline" : 				{
					"source" : [ "obj-13", 0 ],
					"destination" : [ "obj-72", 3 ],
					"hidden" : 0,
					"midpoints" : [ 429.5, 633.0, 340.5, 633.0 ]
				}

			}
, 			{
				"patchline" : 				{
					"source" : [ "obj-24", 0 ],
					"destination" : [ "obj-13", 0 ],
					"hidden" : 0,
					"midpoints" : [  ]
				}

			}
, 			{
				"patchline" : 				{
					"source" : [ "obj-11", 0 ],
					"destination" : [ "obj-24", 0 ],
					"hidden" : 0,
					"midpoints" : [  ]
				}

			}
, 			{
				"patchline" : 				{
					"source" : [ "obj-4", 0 ],
					"destination" : [ "obj-72", 0 ],
					"hidden" : 0,
					"midpoints" : [  ]
				}

			}
, 			{
				"patchline" : 				{
					"source" : [ "obj-27", 0 ],
					"destination" : [ "obj-72", 3 ],
					"hidden" : 0,
					"midpoints" : [ 369.5, 633.0, 340.5, 633.0 ]
				}

			}
, 			{
				"patchline" : 				{
					"source" : [ "obj-37", 0 ],
					"destination" : [ "obj-72", 2 ],
					"hidden" : 0,
					"midpoints" : [  ]
				}

			}
, 			{
				"patchline" : 				{
					"source" : [ "obj-35", 1 ],
					"destination" : [ "obj-33", 0 ],
					"hidden" : 0,
					"midpoints" : [ 69.5, 378.5, 309.5, 378.5 ]
				}

			}
, 			{
				"patchline" : 				{
					"source" : [ "obj-15", 0 ],
					"destination" : [ "obj-72", 0 ],
					"hidden" : 0,
					"midpoints" : [ 369.5, 461.5, 219.5, 461.5 ]
				}

			}
, 			{
				"patchline" : 				{
					"source" : [ "obj-1", 0 ],
					"destination" : [ "obj-72", 1 ],
					"hidden" : 0,
					"midpoints" : [  ]
				}

			}
, 			{
				"patchline" : 				{
					"source" : [ "obj-33", 0 ],
					"destination" : [ "obj-1", 1 ],
					"hidden" : 0,
					"midpoints" : [ 309.5, 587.0, 294.0, 587.0 ]
				}

			}
, 			{
				"patchline" : 				{
					"source" : [ "obj-48", 0 ],
					"destination" : [ "obj-6", 0 ],
					"hidden" : 0,
					"midpoints" : [  ]
				}

			}
, 			{
				"patchline" : 				{
					"source" : [ "obj-44", 0 ],
					"destination" : [ "obj-1", 0 ],
					"hidden" : 0,
					"midpoints" : [  ]
				}

			}
, 			{
				"patchline" : 				{
					"source" : [ "obj-42", 0 ],
					"destination" : [ "obj-44", 0 ],
					"hidden" : 0,
					"midpoints" : [  ]
				}

			}
, 			{
				"patchline" : 				{
					"source" : [ "obj-39", 0 ],
					"destination" : [ "obj-5", 0 ],
					"hidden" : 0,
					"midpoints" : [  ]
				}

			}
, 			{
				"patchline" : 				{
					"source" : [ "obj-30", 0 ],
					"destination" : [ "obj-16", 0 ],
					"hidden" : 0,
					"midpoints" : [ 174.5, 99.5, 69.5, 99.5 ]
				}

			}
, 			{
				"patchline" : 				{
					"source" : [ "obj-30", 0 ],
					"destination" : [ "obj-29", 0 ],
					"hidden" : 0,
					"midpoints" : [ 174.5, 70.5, 69.5, 70.5 ]
				}

			}
, 			{
				"patchline" : 				{
					"source" : [ "obj-30", 0 ],
					"destination" : [ "obj-23", 0 ],
					"hidden" : 0,
					"midpoints" : [ 174.5, 39.5, 69.5, 39.5 ]
				}

			}
, 			{
				"patchline" : 				{
					"source" : [ "obj-29", 0 ],
					"destination" : [ "obj-14", 0 ],
					"hidden" : 0,
					"midpoints" : [  ]
				}

			}
, 			{
				"patchline" : 				{
					"source" : [ "obj-23", 0 ],
					"destination" : [ "obj-14", 0 ],
					"hidden" : 0,
					"midpoints" : [  ]
				}

			}
, 			{
				"patchline" : 				{
					"source" : [ "obj-16", 0 ],
					"destination" : [ "obj-14", 0 ],
					"hidden" : 0,
					"midpoints" : [  ]
				}

			}
, 			{
				"patchline" : 				{
					"source" : [ "obj-35", 2 ],
					"destination" : [ "obj-9", 0 ],
					"hidden" : 0,
					"midpoints" : [  ]
				}

			}
, 			{
				"patchline" : 				{
					"source" : [ "obj-14", 0 ],
					"destination" : [ "obj-35", 0 ],
					"hidden" : 0,
					"midpoints" : [  ]
				}

			}
, 			{
				"patchline" : 				{
					"source" : [ "obj-9", 0 ],
					"destination" : [ "obj-7", 0 ],
					"hidden" : 0,
					"midpoints" : [  ]
				}

			}
, 			{
				"patchline" : 				{
					"source" : [ "obj-5", 0 ],
					"destination" : [ "obj-4", 0 ],
					"hidden" : 0,
					"midpoints" : [  ]
				}

			}
, 			{
				"patchline" : 				{
					"source" : [ "obj-8", 0 ],
					"destination" : [ "obj-3", 0 ],
					"hidden" : 0,
					"midpoints" : [  ]
				}

			}
 ]
	}

}
